<svg xmlns="http://www.w3.org/2000/svg" width="1238" height="409" viewBox="0 0 1238 409"><defs><mask id="dornb" width="2" height="2" x="-1" y="-1"><path fill="#fff" d="M34 24h1170v341H34z"/><path d="M42 24h1154a8 8 0 0 1 8 8v325a8 8 0 0 1-8 8H42a8 8 0 0 1-8-8V32a8 8 0 0 1 8-8z"/></mask><filter id="dorna" width="1290" height="471" x="-26" y="-36" filterUnits="userSpaceOnUse"><feOffset dy="10" in="SourceGraphic" result="FeOffset1071Out"/><feGaussianBlur in="FeOffset1071Out" result="FeGaussianBlur1072Out" stdDeviation="20 20"/></filter><clipPath id="dornd"><path fill="#fff" d="M461.936 581.396c138.013 80.804 303.448 41.48 370.006 14.206 155.834-63.854 296.949-250.094 240.452-431.087-58.46-187.28-289.382-243.93-446.365-217.569-186.166 31.26-367.821 195.932-361.33 403.688 7.244 231.897 246.337 438.543 460.088 380.184 187.466-51.183 304.411-292.227 234.923-475.586C879.135 42.615 600.76 31.615 529.037 32.686 276.236 36.463-37.525 227.615-27.872 495.036c6.247 173.07 147.624 365.664 354.443 395.99 134.252 19.685 275.197-32.415 365.212-138.142 102.413-120.29 147.862-294.623 54.637-454.423"/></clipPath><clipPath id="dornc"><path d="M42 24h1154a8 8 0 0 1 8 8v325a8 8 0 0 1-8 8H42a8 8 0 0 1-8-8V32a8 8 0 0 1 8-8z"/></clipPath></defs><g><g><g filter="url(#dorna)"><path fill="none" d="M42 24h1154a8 8 0 0 1 8 8v325a8 8 0 0 1-8 8H42a8 8 0 0 1-8-8V32a8 8 0 0 1 8-8z" mask="url(&quot;#dornb&quot;)"/><path fill="#5b53ff" fill-opacity=".05" d="M42 24h1154a8 8 0 0 1 8 8v325a8 8 0 0 1-8 8H42a8 8 0 0 1-8-8V32a8 8 0 0 1 8-8z"/></g><path fill="#f7b446" d="M42 24h1154a8 8 0 0 1 8 8v325a8 8 0 0 1-8 8H42a8 8 0 0 1-8-8V32a8 8 0 0 1 8-8z"/></g><g clip-path="url(#dornc)" opacity=".4"><path fill="none" stroke="#fff" stroke-miterlimit="20" stroke-width="2" d="M461.936 581.396c138.013 80.804 303.448 41.48 370.006 14.206 155.834-63.854 296.949-250.094 240.452-431.087-58.46-187.28-289.382-243.93-446.365-217.569-186.166 31.26-367.821 195.932-361.33 403.688 7.244 231.897 246.337 438.543 460.088 380.184 187.466-51.183 304.411-292.227 234.923-475.586C879.135 42.615 600.76 31.615 529.037 32.686 276.236 36.463-37.525 227.615-27.872 495.036c6.247 173.07 147.624 365.664 354.443 395.99 134.252 19.685 275.197-32.415 365.212-138.142 102.413-120.29 147.862-294.623 54.637-454.423" clip-path="url(&quot;#dornd&quot;)"/></g></g></svg>